<svg width="38" height="38" viewBox="0 0 38 38" fill="none" xmlns="http://www.w3.org/2000/svg">
<g clip-path="url(#clip0_1038_168)">
<path d="M38 5.95984C30.8177 5.95984 25.0107 11.7668 25.0107 18.9491C25.0107 26.1314 30.8177 31.9384 38 31.9384V5.95984Z" fill="black"/>
<path d="M0 5.95984V31.9893C7.18231 31.9893 12.9893 26.1824 12.9893 19.0001C12.9893 11.8177 7.18231 5.95984 0 5.95984Z" fill="black"/>
<path d="M19 12.9893C26.1823 12.9893 31.9893 7.18231 31.9893 0H6.01074C6.01074 7.18231 11.8177 12.9893 19 12.9893Z" fill="black"/>
<path d="M31.9893 38C31.9893 37.9491 31.9893 37.8981 31.9893 37.8472C31.9893 30.6649 26.1823 24.8579 19 24.8579C11.8177 24.8579 6.01074 30.6649 6.01074 37.8472C6.01074 45.0295 6.01074 37.9491 6.01074 38H32.0402H31.9893Z" fill="black"/>
</g>
<defs>
<clipPath id="clip0_1038_168">
<rect width="38" height="38" fill="white"/>
</clipPath>
</defs>
</svg>
