<svg width="32" height="32" viewBox="0 0 32 32" fill="none" xmlns="http://www.w3.org/2000/svg">
<g clip-path="url(#clip0_1038_270)">
<path d="M32.0001 5.01855C25.9518 5.01855 21.0618 9.90863 21.0618 15.9569C21.0618 22.0051 25.9518 26.8952 32.0001 26.8952V5.01855Z" fill="white"/>
<path d="M0 5.01855V26.9381C6.04826 26.9381 10.9383 22.048 10.9383 15.9998C10.9383 9.95153 6.04826 5.01855 0 5.01855Z" fill="white"/>
<path d="M15.9999 10.9383C22.0481 10.9383 26.9382 6.04826 26.9382 0H5.06152C5.06152 6.04826 9.9516 10.9383 15.9999 10.9383Z" fill="white"/>
<path d="M26.9382 32.0001C26.9382 31.9572 26.9382 31.9143 26.9382 31.8714C26.9382 25.8232 22.0481 20.9331 15.9999 20.9331C9.9516 20.9331 5.06152 25.8232 5.06152 31.8714C5.06152 37.9197 5.06152 31.9572 5.06152 32.0001H26.9811H26.9382Z" fill="white"/>
</g>
<defs>
<clipPath id="clip0_1038_270">
<rect width="32" height="32" fill="white"/>
</clipPath>
</defs>
</svg>
